<svg xmlns="http://www.w3.org/2000/svg" width="460" height="1557" viewBox="0 0 460 1557">
<rect id="背景" width="460" height="1557" fill="#f4f4f2"/>
<g id="タイトル">
<text x="20" y="35" font-family="Hiragino Kaku Gothic ProN, Noto Sans JP, sans-serif" font-size="17" font-weight="700" fill="#1a1a1a" text-anchor="start">案A「情」現状の棚卸し（全12ブロック）</text>
<text x="20" y="56" font-family="Hiragino Kaku Gothic ProN, Noto Sans JP, sans-serif" font-size="10.5" font-weight="400" fill="#666666" text-anchor="start">判断基準・チップの見方は案Bと共通</text>
</g>
<g id="1. ヘッダー">
<rect x="20" y="67" width="420" height="95" fill="#ffffff" stroke="#222222" stroke-width="1.5"/>
<rect x="34" y="79" width="40" height="18" rx="0" fill="#111111"/>
<text x="54" y="92" font-family="Hiragino Kaku Gothic ProN, Noto Sans JP, sans-serif" font-size="10" font-weight="700" fill="#ffffff" text-anchor="middle">維持</text>
<text x="82" y="92" font-family="Hiragino Kaku Gothic ProN, Noto Sans JP, sans-serif" font-size="13" font-weight="700" fill="#1a1a1a" text-anchor="start">1. ヘッダー</text>
<rect x="34" y="109" width="70" height="8" rx="4" fill="#9a9a9a"/>
<rect x="114" y="109" width="234" height="8" rx="4" fill="#d9d9d9"/>
<rect x="356" y="102" width="70" height="22" rx="0" fill="#111111"/>
<text x="391" y="116" font-family="Hiragino Kaku Gothic ProN, Noto Sans JP, sans-serif" font-size="10" font-weight="700" fill="#ffffff" text-anchor="middle">無料体験</text>
<text x="34" y="145" font-family="Hiragino Kaku Gothic ProN, Noto Sans JP, sans-serif" font-size="10.5" font-weight="400" fill="#666666" text-anchor="start">主接点への常設導線。このまま。</text>
</g>
<g id="2. ヒーロー（縦書きキャッチ含む）">
<rect x="20" y="172" width="420" height="175" fill="#ffffff" stroke="#222222" stroke-width="1.5"/>
<rect x="34" y="184" width="40" height="18" rx="0" fill="#111111"/>
<text x="54" y="197" font-family="Hiragino Kaku Gothic ProN, Noto Sans JP, sans-serif" font-size="10" font-weight="700" fill="#ffffff" text-anchor="middle">維持</text>
<text x="82" y="198" font-family="Hiragino Kaku Gothic ProN, Noto Sans JP, sans-serif" font-size="13" font-weight="700" fill="#1a1a1a" text-anchor="start">2. ヒーロー（縦書きキャッチ含む）</text>
<rect x="34" y="210" width="315" height="22" rx="4" fill="#9a9a9a"/>
<rect x="34" y="238" width="220" height="22" rx="4" fill="#9a9a9a"/>
<rect x="34" y="268" width="329" height="8" rx="4" fill="#d9d9d9"/>
<rect x="34" y="284" width="132" height="22" rx="0" fill="#111111"/>
<text x="100" y="298" font-family="Hiragino Kaku Gothic ProN, Noto Sans JP, sans-serif" font-size="10" font-weight="700" fill="#ffffff" text-anchor="middle">無料体験に申し込む</text>
<rect x="174" y="284" width="110" height="22" rx="0" fill="#ffffff" stroke="#111111" stroke-width="1.5"/>
<text x="229" y="298" font-family="Hiragino Kaku Gothic ProN, Noto Sans JP, sans-serif" font-size="10" font-weight="700" fill="#111111" text-anchor="middle">世界への挑戦</text>
<rect x="414" y="210" width="12" height="96" rx="6" fill="#d9d9d9"/>
<text x="34" y="330" font-family="Hiragino Kaku Gothic ProN, Noto Sans JP, sans-serif" font-size="10.5" font-weight="400" fill="#666666" text-anchor="start">「蹴り出す一歩が、世界へつながる。」＋縦書きキャッチ。Aの顔。</text>
</g>
<g id="3. 保護者への3つの約束">
<rect x="20" y="357" width="420" height="115" fill="#ffffff" stroke="#222222" stroke-width="1.5"/>
<rect x="34" y="369" width="40" height="18" rx="0" fill="#111111"/>
<text x="54" y="382" font-family="Hiragino Kaku Gothic ProN, Noto Sans JP, sans-serif" font-size="10" font-weight="700" fill="#ffffff" text-anchor="middle">維持</text>
<text x="82" y="382" font-family="Hiragino Kaku Gothic ProN, Noto Sans JP, sans-serif" font-size="13" font-weight="700" fill="#1a1a1a" text-anchor="start">3. 保護者への3つの約束</text>
<rect x="34" y="395" width="127" height="44" rx="8" fill="#d9d9d9"/>
<rect x="167" y="395" width="127" height="44" rx="8" fill="#d9d9d9"/>
<rect x="299" y="395" width="127" height="44" rx="8" fill="#d9d9d9"/>
<text x="34" y="455" font-family="Hiragino Kaku Gothic ProN, Noto Sans JP, sans-serif" font-size="10.5" font-weight="400" fill="#666666" text-anchor="start">主接点（保護者）の不安に直結する核。</text>
</g>
<g id="4. 世界への挑戦（写真4＋引用＋本文）">
<rect x="20" y="482" width="420" height="127" fill="#ffffff" stroke="#b48f00" stroke-width="1.5"/>
<rect x="34" y="494" width="40" height="18" rx="0" fill="#e8c227"/>
<text x="54" y="507" font-family="Hiragino Kaku Gothic ProN, Noto Sans JP, sans-serif" font-size="10" font-weight="700" fill="#111111" text-anchor="middle">縮小</text>
<text x="82" y="508" font-family="Hiragino Kaku Gothic ProN, Noto Sans JP, sans-serif" font-size="13" font-weight="700" fill="#1a1a1a" text-anchor="start">4. 世界への挑戦（写真4＋引用＋本文）</text>
<rect x="34" y="520" width="180" height="56" rx="0" fill="#ffffff" stroke="#aaaaaa" stroke-width="1.5"/>
<line x1="34" y1="520" x2="214" y2="576" stroke="#c4c4c4" stroke-width="1.5"/>
<line x1="214" y1="520" x2="34" y2="576" stroke="#c4c4c4" stroke-width="1.5"/>
<rect x="222" y="526" width="204" height="8" rx="4" fill="#d9d9d9"/>
<rect x="222" y="540" width="163" height="8" rx="4" fill="#d9d9d9"/>
<rect x="222" y="554" width="122" height="8" rx="4" fill="#d9d9d9"/>
<text x="34" y="592" font-family="Hiragino Kaku Gothic ProN, Noto Sans JP, sans-serif" font-size="10.5" font-weight="400" fill="#666666" text-anchor="start">写真1枚＋引用＋リンクの帯へ圧縮。ギャラリーと本文3段落は下層へ。</text>
</g>
<g id="5. 私たちの理念（五大精神＋情）">
<rect x="20" y="619" width="420" height="101" fill="#fdf0ee" stroke="#c0392b" stroke-width="1.5" stroke-dasharray="6 4"/>
<rect x="34" y="631" width="62" height="18" rx="0" fill="#ffffff" stroke="#c0392b" stroke-width="1.5"/>
<text x="65" y="644" font-family="Hiragino Kaku Gothic ProN, Noto Sans JP, sans-serif" font-size="10" font-weight="700" fill="#c0392b" text-anchor="middle">削除候補</text>
<text x="104" y="644" font-family="Hiragino Kaku Gothic ProN, Noto Sans JP, sans-serif" font-size="13" font-weight="700" fill="#1a1a1a" text-anchor="start">5. 私たちの理念（五大精神＋情）</text>
<rect x="34" y="657" width="74" height="30" rx="0" fill="#d9d9d9"/>
<rect x="114" y="657" width="74" height="30" rx="0" fill="#d9d9d9"/>
<rect x="193" y="657" width="74" height="30" rx="0" fill="#d9d9d9"/>
<rect x="273" y="657" width="74" height="30" rx="0" fill="#d9d9d9"/>
<rect x="352" y="657" width="74" height="30" rx="0" fill="#d9d9d9"/>
<text x="34" y="703" font-family="Hiragino Kaku Gothic ProN, Noto Sans JP, sans-serif" font-size="10.5" font-weight="400" fill="#666666" text-anchor="start">下層「私たちの理念」ページが既にある。TOPは約束の情カードで代替。</text>
</g>
<g id="6. クラスカード×5">
<rect x="20" y="730" width="420" height="117" fill="#ffffff" stroke="#b48f00" stroke-width="1.5"/>
<rect x="34" y="742" width="40" height="18" rx="0" fill="#e8c227"/>
<text x="54" y="755" font-family="Hiragino Kaku Gothic ProN, Noto Sans JP, sans-serif" font-size="10" font-weight="700" fill="#111111" text-anchor="middle">縮小</text>
<text x="82" y="756" font-family="Hiragino Kaku Gothic ProN, Noto Sans JP, sans-serif" font-size="13" font-weight="700" fill="#1a1a1a" text-anchor="start">6. クラスカード×5</text>
<rect x="34" y="768" width="127" height="46" rx="8" fill="#d9d9d9"/>
<rect x="167" y="768" width="127" height="46" rx="8" fill="#d9d9d9"/>
<rect x="299" y="768" width="127" height="46" rx="8" fill="#d9d9d9"/>
<text x="34" y="830" font-family="Hiragino Kaku Gothic ProN, Noto Sans JP, sans-serif" font-size="10.5" font-weight="400" fill="#666666" text-anchor="start">カード内の説明文を1行に。詳細は下層へ。</text>
</g>
<g id="7. 料金プラン×3">
<rect x="20" y="857" width="420" height="117" fill="#ffffff" stroke="#222222" stroke-width="1.5"/>
<rect x="34" y="869" width="40" height="18" rx="0" fill="#111111"/>
<text x="54" y="882" font-family="Hiragino Kaku Gothic ProN, Noto Sans JP, sans-serif" font-size="10" font-weight="700" fill="#ffffff" text-anchor="middle">維持</text>
<text x="82" y="882" font-family="Hiragino Kaku Gothic ProN, Noto Sans JP, sans-serif" font-size="13" font-weight="700" fill="#1a1a1a" text-anchor="start">7. 料金プラン×3</text>
<rect x="34" y="895" width="127" height="46" rx="8" fill="#d9d9d9"/>
<rect x="167" y="895" width="127" height="46" rx="8" fill="#9a9a9a"/>
<rect x="299" y="895" width="127" height="46" rx="8" fill="#d9d9d9"/>
<text x="34" y="957" font-family="Hiragino Kaku Gothic ProN, Noto Sans JP, sans-serif" font-size="10.5" font-weight="400" fill="#666666" text-anchor="start">入会判断の必須情報。注記1行のみ添える。</text>
</g>
<g id="8. よくあるご質問×4">
<rect x="20" y="984" width="420" height="121" fill="#fdf0ee" stroke="#c0392b" stroke-width="1.5" stroke-dasharray="6 4"/>
<rect x="34" y="996" width="62" height="18" rx="0" fill="#ffffff" stroke="#c0392b" stroke-width="1.5"/>
<text x="65" y="1009" font-family="Hiragino Kaku Gothic ProN, Noto Sans JP, sans-serif" font-size="10" font-weight="700" fill="#c0392b" text-anchor="middle">削除候補</text>
<text x="104" y="1010" font-family="Hiragino Kaku Gothic ProN, Noto Sans JP, sans-serif" font-size="13" font-weight="700" fill="#1a1a1a" text-anchor="start">8. よくあるご質問×4</text>
<rect x="34" y="1022" width="392" height="8" rx="4" fill="#d9d9d9"/>
<rect x="34" y="1036" width="392" height="8" rx="4" fill="#d9d9d9"/>
<rect x="34" y="1050" width="392" height="8" rx="4" fill="#d9d9d9"/>
<rect x="34" y="1064" width="392" height="8" rx="4" fill="#d9d9d9"/>
<text x="34" y="1088" font-family="Hiragino Kaku Gothic ProN, Noto Sans JP, sans-serif" font-size="10.5" font-weight="400" fill="#666666" text-anchor="start">体験申込ページ（trial）に同内容があるため重複。</text>
</g>
<g id="9. お知らせ×3">
<rect x="20" y="1115" width="420" height="107" fill="#fdf0ee" stroke="#c0392b" stroke-width="1.5" stroke-dasharray="6 4"/>
<rect x="34" y="1127" width="62" height="18" rx="0" fill="#ffffff" stroke="#c0392b" stroke-width="1.5"/>
<text x="65" y="1140" font-family="Hiragino Kaku Gothic ProN, Noto Sans JP, sans-serif" font-size="10" font-weight="700" fill="#c0392b" text-anchor="middle">削除候補</text>
<text x="104" y="1140" font-family="Hiragino Kaku Gothic ProN, Noto Sans JP, sans-serif" font-size="13" font-weight="700" fill="#1a1a1a" text-anchor="start">9. お知らせ×3</text>
<rect x="34" y="1153" width="392" height="8" rx="4" fill="#d9d9d9"/>
<rect x="34" y="1167" width="392" height="8" rx="4" fill="#d9d9d9"/>
<rect x="34" y="1181" width="392" height="8" rx="4" fill="#d9d9d9"/>
<text x="34" y="1205" font-family="Hiragino Kaku Gothic ProN, Noto Sans JP, sans-serif" font-size="10.5" font-weight="400" fill="#666666" text-anchor="start">更新運用が決まるまで非表示。※要確認</text>
</g>
<g id="10. サポーター（協賛）">
<rect x="20" y="1232" width="420" height="93" fill="#ffffff" stroke="#b48f00" stroke-width="1.5"/>
<rect x="34" y="1244" width="40" height="18" rx="0" fill="#e8c227"/>
<text x="54" y="1257" font-family="Hiragino Kaku Gothic ProN, Noto Sans JP, sans-serif" font-size="10" font-weight="700" fill="#111111" text-anchor="middle">縮小</text>
<text x="82" y="1258" font-family="Hiragino Kaku Gothic ProN, Noto Sans JP, sans-serif" font-size="13" font-weight="700" fill="#1a1a1a" text-anchor="start">10. サポーター（協賛）</text>
<rect x="34" y="1274" width="272" height="8" rx="4" fill="#d9d9d9"/>
<rect x="316" y="1268" width="110" height="20" rx="0" fill="#ffffff" stroke="#111111" stroke-width="1.5"/>
<text x="371" y="1282" font-family="Hiragino Kaku Gothic ProN, Noto Sans JP, sans-serif" font-size="10" font-weight="700" fill="#111111" text-anchor="middle">協賛のご相談</text>
<text x="34" y="1308" font-family="Hiragino Kaku Gothic ProN, Noto Sans JP, sans-serif" font-size="10.5" font-weight="400" fill="#666666" text-anchor="start">濃紺の大セクション → CTA上の1行バナーへ。</text>
</g>
<g id="11. CTA（まずは、無料体験から。）">
<rect x="20" y="1335" width="420" height="95" fill="#ffffff" stroke="#222222" stroke-width="1.5"/>
<rect x="34" y="1347" width="40" height="18" rx="0" fill="#111111"/>
<text x="54" y="1360" font-family="Hiragino Kaku Gothic ProN, Noto Sans JP, sans-serif" font-size="10" font-weight="700" fill="#ffffff" text-anchor="middle">維持</text>
<text x="82" y="1360" font-family="Hiragino Kaku Gothic ProN, Noto Sans JP, sans-serif" font-size="13" font-weight="700" fill="#1a1a1a" text-anchor="start">11. CTA（まずは、無料体験から。）</text>
<rect x="160" y="1373" width="140" height="22" rx="0" fill="#111111"/>
<text x="230" y="1388" font-family="Hiragino Kaku Gothic ProN, Noto Sans JP, sans-serif" font-size="10" font-weight="700" fill="#ffffff" text-anchor="middle">無料体験に申し込む</text>
<text x="34" y="1413" font-family="Hiragino Kaku Gothic ProN, Noto Sans JP, sans-serif" font-size="10.5" font-weight="400" fill="#666666" text-anchor="start">主接点の締め。このまま。</text>
</g>
<g id="12. フッター（3カラム）">
<rect x="20" y="1440" width="420" height="97" fill="#ffffff" stroke="#222222" stroke-width="1.5"/>
<rect x="34" y="1452" width="40" height="18" rx="0" fill="#111111"/>
<text x="54" y="1465" font-family="Hiragino Kaku Gothic ProN, Noto Sans JP, sans-serif" font-size="10" font-weight="700" fill="#ffffff" text-anchor="middle">維持</text>
<text x="82" y="1466" font-family="Hiragino Kaku Gothic ProN, Noto Sans JP, sans-serif" font-size="13" font-weight="700" fill="#1a1a1a" text-anchor="start">12. フッター（3カラム）</text>
<rect x="34" y="1478" width="127" height="26" rx="0" fill="#d9d9d9"/>
<rect x="167" y="1478" width="127" height="26" rx="0" fill="#d9d9d9"/>
<rect x="299" y="1478" width="127" height="26" rx="0" fill="#d9d9d9"/>
<text x="34" y="1520" font-family="Hiragino Kaku Gothic ProN, Noto Sans JP, sans-serif" font-size="10.5" font-weight="400" fill="#666666" text-anchor="start">元から3カラムで適量。このまま。</text>
</g>
</svg>